<mxfile host="app.diagrams.net" modified="2021-04-05T04:31:46.293Z" agent="5.0 (X11; Linux x86_64) AppleWebKit/537.36 (KHTML, like Gecko) Chrome/89.0.4389.90 Safari/537.36" etag="eYYE9Hz7xI-0GXni7IJc" version="14.5.7" type="github">
  <diagram id="3zBokrBIPQ69dkRLH_zG" name="Page-1">
    <mxGraphModel dx="796" dy="494" grid="1" gridSize="10" guides="1" tooltips="1" connect="1" arrows="1" fold="1" page="1" pageScale="1" pageWidth="850" pageHeight="1100" math="0" shadow="0">
      <root>
        <mxCell id="0" />
        <mxCell id="1" parent="0" />
        <mxCell id="VdiR7Nu6vzVMNhyCqP86-1" value="" style="rounded=0;whiteSpace=wrap;html=1;" parent="1" vertex="1">
          <mxGeometry x="120" y="120" width="560" height="280" as="geometry" />
        </mxCell>
        <mxCell id="MFXbKcEDl9_F8biCnuB_-2" value="" style="rounded=1;whiteSpace=wrap;html=1;" vertex="1" parent="1">
          <mxGeometry x="120" y="120" width="560" height="30" as="geometry" />
        </mxCell>
        <mxCell id="MFXbKcEDl9_F8biCnuB_-3" value="LOGOUT" style="rounded=1;whiteSpace=wrap;html=1;" vertex="1" parent="1">
          <mxGeometry x="610" y="125" width="60" height="20" as="geometry" />
        </mxCell>
        <mxCell id="MFXbKcEDl9_F8biCnuB_-4" value="&lt;b&gt;Hello ABC&lt;/b&gt;" style="text;html=1;strokeColor=none;fillColor=none;align=center;verticalAlign=middle;whiteSpace=wrap;rounded=0;" vertex="1" parent="1">
          <mxGeometry x="130" y="125" width="70" height="20" as="geometry" />
        </mxCell>
        <mxCell id="MFXbKcEDl9_F8biCnuB_-6" value="UPDATE PRICE" style="rounded=1;whiteSpace=wrap;html=1;" vertex="1" parent="1">
          <mxGeometry x="130" y="160" width="80" height="30" as="geometry" />
        </mxCell>
        <mxCell id="MFXbKcEDl9_F8biCnuB_-8" value="UPLOAD PRICE" style="rounded=1;whiteSpace=wrap;html=1;" vertex="1" parent="1">
          <mxGeometry x="220" y="160" width="80" height="30" as="geometry" />
        </mxCell>
        <mxCell id="MFXbKcEDl9_F8biCnuB_-10" value="DOWNLOAD PRICE CHART" style="rounded=1;whiteSpace=wrap;html=1;" vertex="1" parent="1">
          <mxGeometry x="320" y="160" width="90" height="30" as="geometry" />
        </mxCell>
        <mxCell id="MFXbKcEDl9_F8biCnuB_-12" value="&lt;b&gt;REPORTS&lt;/b&gt;" style="rounded=1;whiteSpace=wrap;html=1;" vertex="1" parent="1">
          <mxGeometry x="420" y="160" width="90" height="30" as="geometry" />
        </mxCell>
        <mxCell id="MFXbKcEDl9_F8biCnuB_-14" value="" style="group" vertex="1" connectable="0" parent="1">
          <mxGeometry x="130" y="220" width="120" height="60" as="geometry" />
        </mxCell>
        <mxCell id="MFXbKcEDl9_F8biCnuB_-5" value="" style="rounded=1;whiteSpace=wrap;html=1;" vertex="1" parent="MFXbKcEDl9_F8biCnuB_-14">
          <mxGeometry width="120" height="60" as="geometry" />
        </mxCell>
        <mxCell id="MFXbKcEDl9_F8biCnuB_-13" value="" style="image;html=1;image=img/lib/clip_art/finance/Pie_Chart_128x128.png" vertex="1" parent="MFXbKcEDl9_F8biCnuB_-14">
          <mxGeometry x="30" width="60" height="60" as="geometry" />
        </mxCell>
        <mxCell id="MFXbKcEDl9_F8biCnuB_-15" value="&lt;b&gt;Inventory&lt;/b&gt;" style="text;html=1;strokeColor=none;fillColor=none;align=center;verticalAlign=middle;whiteSpace=wrap;rounded=0;" vertex="1" parent="1">
          <mxGeometry x="150" y="280" width="80" height="20" as="geometry" />
        </mxCell>
      </root>
    </mxGraphModel>
  </diagram>
</mxfile>
